# xmcd
# 
# Track frame offsets:
#     150
#     14350
#     25197
#     40037
#     55130
#     67005
#     77392
#     90837
#     102360
#     110830
#     119897
#     133342
#     146482
#     164955
#     174167
# 
# Disc length: 2506
# 
# Revision: 2
# Processed by: cddbd v1.5.2PL0 Copyright (c) Steve Scherf et al.
# Submitted via: fre:ac v1.0.17
# 
DISCID=ce09c80f
DTITLE=Simon and Garfunkel - SOUNDS OF SILENCE
DYEAR=1966
DGENRE=Folk
TTITLE0=The Sound Of Silence
TTITLE1=Leaves That Are Green
TTITLE2=Blessed
TTITLE3=Kathy's Song
TTITLE4=Somewhere They Can't Find Me
TTITLE5=Anji
TTITLE6=Richard Cory
TTITLE7=A Most Peculiar Man
TTITLE8=April Come She Will
TTITLE9=We've Got A Groovy Thing Goin'
TTITLE10=I Am A Rock
TTITLE11=Blues Run The Game
TTITLE12=Barbriallen
TTITLE13=Rose Of Aberdeen
TTITLE14=Roving Gambler
EXTD=
EXTT0=
EXTT1=
EXTT2=
EXTT3=
EXTT4=
EXTT5=
EXTT6=
EXTT7=
EXTT8=
EXTT9=
EXTT10=
EXTT11=
EXTT12=
EXTT13=
EXTT14=
PLAYORDER=
